<svg xmlns="http://www.w3.org/2000/svg" version="1.1" xmlns:xlink="http://www.w3.org/1999/xlink" xmlns:svgjs="http://svgjs.dev/svgjs" width="1500" height="1500" viewBox="0 0 1500 1500"><g transform="matrix(1,0,0,1,-0.323615160350073,-0.3236151603499593)"><svg viewBox="0 0 343 343" data-background-color="#fffff5" preserveAspectRatio="xMidYMid meet" height="1500" width="1500" xmlns="http://www.w3.org/2000/svg" xmlns:xlink="http://www.w3.org/1999/xlink"><g id="tight-bounds" transform="matrix(1,0,0,1,0.0740000000000407,0.07400000000001228)"><svg viewBox="0 0 342.85155851775386 342.85155851775386" height="342.85155851775386" width="342.85155851775386"><g><svg></svg></g><g><svg viewBox="0 0 342.85155851775386 342.85155851775386" height="342.85155851775386" width="342.85155851775386"><g><path d="M0 171.426c0-94.676 76.75-171.426 171.426-171.426 94.676 0 171.426 76.75 171.426 171.426 0 94.676-76.75 171.426-171.426 171.426-94.676 0-171.426-76.75-171.426-171.426zM171.426 335.926c90.851 0 164.5-73.649 164.5-164.5 0-90.851-73.649-164.5-164.5-164.5-90.851 0-164.5 73.649-164.5 164.5 0 90.851 73.649 164.5 164.5 164.5z" data-fill-palette-color="tertiary" fill="#091627" stroke="transparent"></path><ellipse rx="164.56874808852186" ry="164.56874808852186" cx="171.42577925887693" cy="171.42577925887693" fill="#091627" stroke="transparent" stroke-width="0" fill-opacity="1" data-fill-palette-color="tertiary"></ellipse></g><g transform="matrix(1,0,0,1,64.84655864529837,84.06041073980458)"><svg viewBox="0 0 213.1584412271571 174.7307370381447" height="174.7307370381447" width="213.1584412271571"><g><svg viewBox="0 0 213.1584412271571 174.7307370381447" height="174.7307370381447" width="213.1584412271571"><g><svg viewBox="0 0 213.1584412271571 174.7307370381447" height="174.7307370381447" width="213.1584412271571"><g transform="matrix(1,0,0,1,0,61.4786641106458)"><svg viewBox="0 0 213.1584412271571 113.2520729274989" height="113.2520729274989" width="213.1584412271571"><g id="textblocktransform"><svg viewBox="0 0 213.1584412271571 113.2520729274989" height="113.2520729274989" width="213.1584412271571" id="textblock"><g><svg viewBox="0 0 213.1584412271571 76.80096955027405" height="76.80096955027405" width="213.1584412271571"><g transform="matrix(1,0,0,1,0,0)"><svg width="213.1584412271571" viewBox="1.7 -36.5 126.68999999999998 45.65" height="76.80096955027405" data-palette-color="#fffff5"><path d="M12.9 0.35L12.9 0.35Q9.6 0.35 7.08-1.28 4.55-2.9 3.13-5.85 1.7-8.8 1.7-12.7L1.7-12.7Q1.7-16.5 3.05-19.45 4.4-22.4 7.05-24.08 9.7-25.75 13.65-25.75L13.65-25.75Q15.2-25.75 17.25-25.23 19.3-24.7 21.15-23.95L21.15-23.95 21.15-21.25 18.55-21.4Q17.55-21.75 16.43-22 15.3-22.25 13.9-22.25L13.9-22.25Q11.35-22.25 9.68-21.08 8-19.9 7.15-17.75 6.3-15.6 6.3-12.7L6.3-12.7Q6.3-8.35 8.2-5.73 10.1-3.1 13.65-3.1L13.65-3.1Q15.6-3.1 16.85-3.73 18.1-4.35 18.9-4.98 19.7-5.6 20.15-5.6L20.15-5.6Q20.4-5.6 20.63-5.5 20.85-5.4 21-5.2L21-5.2 22.25-3.55Q20.6-1.55 18.15-0.6 15.7 0.35 12.9 0.35ZM18.45-18.15L17.95-21.9 21.15-21.25 21.15-17.35 19.5-17.35Q19-17.35 18.75-17.57 18.5-17.8 18.45-18.15L18.45-18.15ZM37.45-25.75L37.45-25.75Q41.25-25.75 43.92-24.13 46.6-22.5 48.05-19.55 49.5-16.6 49.5-12.7L49.5-12.7Q49.5-8.8 48.05-5.85 46.6-2.9 43.92-1.28 41.25 0.35 37.45 0.35L37.45 0.35Q33.75 0.35 31.02-1.28 28.3-2.9 26.82-5.85 25.35-8.8 25.35-12.7L25.35-12.7Q25.35-16.6 26.82-19.55 28.3-22.5 31.02-24.13 33.75-25.75 37.45-25.75ZM37.45-3.15L37.45-3.15Q41.2-3.15 43.05-5.65 44.9-8.15 44.9-12.65L44.9-12.65Q44.9-15.7 44.07-17.82 43.25-19.95 41.6-21.1 39.95-22.25 37.45-22.25L37.45-22.25Q34.9-22.25 33.22-21.08 31.55-19.9 30.75-17.75 29.95-15.6 29.95-12.65L29.95-12.65Q29.95-8.3 31.8-5.73 33.65-3.15 37.45-3.15ZM61.15 0.4L61.15 0.4Q59.35 0.4 57.12 0 54.9-0.4 53.3-1L53.3-1 53.3-4.7 55.5-4.2Q56.15-3.75 57.57-3.28 59-2.8 60.9-2.8L60.9-2.8Q63.75-2.8 65.1-3.98 66.45-5.15 66.45-6.85L66.45-6.85Q66.45-8.35 65.55-9.15 64.65-9.95 63.15-10.45 61.65-10.95 59.9-11.5L59.9-11.5Q58.1-12.1 56.6-12.9 55.1-13.7 54.2-14.98 53.3-16.25 53.3-18.2L53.3-18.2Q53.3-20.45 54.47-22.15 55.65-23.85 57.67-24.8 59.7-25.75 62.25-25.75L62.25-25.75Q63.7-25.75 65.47-25.4 67.25-25.05 69.35-24.35L69.35-24.35 69.35-21.35 66.7-21.7Q65.65-22 64.57-22.2 63.5-22.4 62.5-22.4L62.5-22.4Q61.05-22.4 59.92-21.95 58.8-21.5 58.15-20.7 57.5-19.9 57.5-18.85L57.5-18.85Q57.5-17.45 58.57-16.63 59.65-15.8 61.2-15.3 62.75-14.8 64.15-14.35L64.15-14.35Q65.8-13.85 67.27-13.05 68.75-12.25 69.7-10.95 70.65-9.65 70.65-7.55L70.65-7.55Q70.65-5.3 69.47-3.5 68.3-1.7 66.17-0.65 64.05 0.4 61.15 0.4ZM66.65-18.65L66.15-22.4 69.35-21.75 69.35-17.85 67.7-17.85Q67.2-17.85 66.95-18.07 66.7-18.3 66.65-18.65L66.65-18.65ZM56-6.8L56.5-3.05 53.3-3.7 53.3-7.6 54.95-7.6Q55.5-7.6 55.72-7.38 55.95-7.15 56-6.8L56-6.8ZM81.94 0L77.49 0 77.49-25.35 81.94-25.35 81.94 0ZM78.99 0L73.89 0 73.89-2.05Q73.89-2.5 74.09-2.78 74.29-3.05 74.69-3.1L74.69-3.1 78.44-3.9 78.99 0ZM85.54 0L80.44 0 80.99-3.9 84.74-3.1Q85.14-3.05 85.34-2.78 85.54-2.5 85.54-2.05L85.54-2.05 85.54 0ZM73.89-25.35L78.99-25.35 78.44-21.45 74.69-22.25Q74.29-22.35 74.09-22.6 73.89-22.85 73.89-23.3L73.89-23.3 73.89-25.35ZM79.64-30.15L79.64-30.15Q78.39-30.15 77.44-31.1 76.49-32.05 76.49-33.3L76.49-33.3Q76.49-34.6 77.44-35.55 78.39-36.5 79.64-36.5L79.64-36.5Q80.94-36.5 81.89-35.55 82.84-34.6 82.84-33.3L82.84-33.3Q82.84-32.05 81.89-31.1 80.94-30.15 79.64-30.15ZM97.74-25.75L97.74-25.75Q99.39-25.75 100.82-25.4 102.24-25.05 103.44-24.35L103.44-24.35 110.29-24.35 110.29-22.7Q110.29-22.3 110.04-22.03 109.79-21.75 109.24-21.65L109.24-21.65 106.39-21.25Q107.24-19.55 107.24-17.6L107.24-17.6Q107.24-15.1 105.99-13.28 104.74-11.45 102.59-10.45 100.44-9.45 97.74-9.45L97.74-9.45Q96.84-9.45 96.02-9.55 95.19-9.65 94.39-9.85L94.39-9.85Q93.59-9.35 93.17-8.78 92.74-8.2 92.74-7.65L92.74-7.65Q92.74-6.7 93.52-6.25 94.29-5.8 95.57-5.63 96.84-5.45 98.34-5.4 99.84-5.35 101.24-5.25L101.24-5.25Q103.54-5.05 105.47-4.55 107.39-4.05 108.57-2.85 109.74-1.65 109.74 0.65L109.74 0.65Q109.74 3.05 108.19 4.98 106.64 6.9 103.97 8.03 101.29 9.15 97.89 9.15L97.89 9.15Q94.59 9.15 92.09 8.3 89.59 7.45 88.19 5.95 86.79 4.45 86.79 2.45L86.79 2.45Q86.79 0.55 87.99-0.78 89.19-2.1 91.24-2.85L91.24-2.85Q90.19-3.35 89.54-4.2 88.89-5.05 88.89-6.45L88.89-6.45Q88.89-7.6 89.79-8.8 90.69-10 92.14-10.75L92.14-10.75Q90.24-11.8 89.19-13.55 88.14-15.3 88.14-17.6L88.14-17.6Q88.14-20.15 89.39-21.98 90.64-23.8 92.82-24.78 94.99-25.75 97.74-25.75ZM105.64 1.4L105.64 1.4Q105.64-0.05 104.47-0.68 103.29-1.3 101.64-1.5L101.64-1.5Q101.09-1.6 100.09-1.65 99.09-1.7 97.92-1.78 96.74-1.85 95.67-1.95 94.59-2.05 93.89-2.15L93.89-2.15Q92.49-1.45 91.59-0.48 90.69 0.5 90.69 1.85L90.69 1.85Q90.69 3.1 91.59 4.03 92.49 4.95 94.14 5.43 95.79 5.9 97.94 5.9L97.94 5.9Q100.14 5.9 101.87 5.38 103.59 4.85 104.62 3.85 105.64 2.85 105.64 1.4ZM97.74-12.4L97.74-12.4Q100.34-12.4 101.79-13.8 103.24-15.2 103.24-17.5L103.24-17.5Q103.24-19.8 101.84-21.18 100.44-22.55 97.74-22.55L97.74-22.55Q95.04-22.55 93.64-21.18 92.24-19.8 92.24-17.5L92.24-17.5Q92.24-15.2 93.69-13.8 95.14-12.4 97.74-12.4ZM122.29 0.4L122.29 0.4Q119.29 0.4 117.66-1.28 116.04-2.95 116.04-6.1L116.04-6.1 116.04-21.6 112.99-21.6Q112.59-21.6 112.31-21.85 112.04-22.1 112.04-22.6L112.04-22.6 112.04-24.35 116.19-24.9 117.24-32.7Q117.34-33.55 118.24-33.55L118.24-33.55 120.49-33.55 120.49-24.85 127.74-24.85 127.74-21.6 120.49-21.6 120.49-6.4Q120.49-4.8 121.26-4.03 122.04-3.25 123.29-3.25L123.29-3.25Q123.84-3.25 124.49-3.55 125.14-3.85 125.69-4.15 126.24-4.45 126.49-4.45L126.49-4.45Q126.84-4.45 127.09-4.05L127.09-4.05 128.39-1.9Q127.24-0.85 125.61-0.23 123.99 0.4 122.29 0.4Z" opacity="1" transform="matrix(1,0,0,1,0,0)" fill="#fffff5" class="wordmark-text-0" data-fill-palette-color="quaternary" id="text-0"></path></svg></g></svg></g><g transform="matrix(1,0,0,1,0,94.93183523782454)"><svg viewBox="0 0 213.1584412271571 18.32023768967436" height="18.32023768967436" width="213.1584412271571"><g transform="matrix(1,0,0,1,0,0)"><svg width="213.1584412271571" viewBox="1.35 -36.55 602.6999999999999 51.8" height="18.32023768967436" data-palette-color="#fffff5"><path d="M23.1-11.45L23.1-11.45Q24.05-11.45 24.05-9.05 24.05-6.65 23.15-4.75 22.25-2.85 20.98-1.8 19.7-0.75 18.1-0.1L18.1-0.1Q12.75 2.25 8.1-0.2L8.1-0.2Q5.75-1.45 4.5-3.18 3.25-4.9 2.5-7.3L2.5-7.3Q1.35-10.9 1.35-14.85 1.35-18.8 2.1-22.25 2.85-25.7 4.4-28.83 5.95-31.95 8.8-33.85 11.65-35.75 15.4-35.75L15.4-35.75Q17-35.75 18.73-35.23 20.45-34.7 21.55-33.93 22.65-33.15 23.5-31.55 24.35-29.95 24.35-27.8L24.35-27.8Q24.35-25.5 23.25-23.65L23.25-23.65Q22.75-22.8 21.65-22.13 20.55-21.45 19.05-21.45L19.05-21.45Q16.75-21.45 15.8-23.5L15.8-23.5Q15.4-24.3 15.4-25.25 15.4-26.2 16.05-26.35L16.05-26.35Q16.75-26.55 17.35-27.45 17.95-28.35 17.95-29.55L17.95-29.55Q17.95-30.5 17.45-31.2L17.45-31.2Q16.5-32.45 14.7-32.45 12.9-32.45 11.43-30.8 9.95-29.15 9.2-26.65L9.2-26.65Q7.7-21.65 7.7-17.45L7.7-17.45Q7.7-13.25 8.85-10.7L8.85-10.7Q10.25-7.55 12.4-6.5L12.4-6.5Q13.75-5.85 15.5-5.85L15.5-5.85Q18.45-5.85 20.8-8.5L20.8-8.5Q21.8-9.55 22.45-11L22.45-11Q22.7-11.45 23.1-11.45ZM39.9-32.1L39.9-32.1Q38.1-32.1 36.9-30.8L36.9-30.8Q34.8-28.5 34.8-24.98 34.8-21.45 36.6-20.75L36.6-20.75Q37.05-20.6 37.05-20.1L37.05-20.1Q37.05-18.6 36.05-17.57 35.05-16.55 33.6-16.35L33.6-16.35Q33.15-16.35 33.15-16L33.15-16Q33.1-15.45 33.1-14.43 33.1-13.4 33.2-12.18 33.3-10.95 33.68-9.28 34.05-7.6 34.68-6.38 35.3-5.15 36.48-4.28 37.65-3.4 39.53-3.4 41.4-3.4 42.9-4.9 44.4-6.4 45-8.8L45-8.8Q46.1-13 46.1-16.88 46.1-20.75 45.6-23.7 45.1-26.65 44.43-28.2 43.75-29.75 42.8-30.7 41.85-31.65 41.2-31.88 40.55-32.1 39.9-32.1ZM30.8-27.15L30.8-27.15 31-27.45Q31.5-29.75 32.63-31.43 33.75-33.1 34.88-33.93 36-34.75 37.4-35.2L37.4-35.2Q39.25-35.8 40.65-35.8L40.65-35.8Q44-35.8 46.43-34.25 48.85-32.7 50.1-30.05L50.1-30.05Q52.4-25 52.4-18.6L52.4-18.6Q52.4-7.85 47.4-2.95L47.4-2.95Q44.95-0.55 42 0.3L42 0.3Q40.15 0.85 38.45 0.85L38.45 0.85Q32.2 0.85 29.25-3.43 26.3-7.7 26.3-14.25L26.3-14.25Q26.3-18.05 26.95-21.23 27.6-24.4 28.3-25.7L28.3-25.7 28.95-27Q29.15-27.45 29.6-27.45 30.05-27.45 30.28-27.38 30.5-27.3 30.63-27.23 30.75-27.15 30.8-27.15ZM70.1-6.85L70.1-6.85Q70.1-4.7 69.28-3.1 68.45-1.5 67.4-0.75 66.35 0 64.9 0.45L64.9 0.45Q63 1.05 61.45 1.05L61.45 1.05Q58.2 1.05 56.05-0.23 53.9-1.5 53.9-4.3L53.9-4.3Q53.9-5.95 54.8-7L54.8-7Q56.2-8.55 58.15-8.55L58.15-8.55Q58.75-8.55 58.75-8L58.75-8Q58.75-7.95 58.53-7.23 58.3-6.5 58.3-5.4 58.3-4.3 59.18-3.45 60.05-2.6 61.3-2.6 62.55-2.6 63.3-3.03 64.05-3.45 64.35-4.1L64.35-4.1Q64.8-5 64.8-5.8L64.8-5.8Q64.8-7.25 63.35-8.3 61.9-9.35 60.15-9.95 58.4-10.55 56.95-11.95 55.5-13.35 55.5-15.45L55.5-15.45Q55.5-19.05 57.78-20.85 60.05-22.65 63.95-22.65L63.95-22.65Q65.65-22.65 67.53-22.18 69.4-21.7 69.4-20.58 69.4-19.45 69.03-18.5 68.65-17.55 68.1-17.55L68.1-17.55Q67.8-17.55 67.7-17.78 67.6-18 67.35-18.3 67.1-18.6 66.15-19.07 65.2-19.55 64.53-19.55 63.85-19.55 63.63-19.53 63.4-19.5 62.85-19.38 62.3-19.25 61.85-19L61.85-19Q60.7-18.35 60.7-17.1L60.7-17.1Q60.7-16.3 61.05-15.93 61.4-15.55 61.6-15.35 61.8-15.15 62.3-14.88 62.8-14.6 63-14.5 63.2-14.4 63.9-14.08 64.6-13.75 64.8-13.65L64.8-13.65Q70.1-11.15 70.1-6.85ZM77.25-26.75L77.25-26.75 76.05-26.8Q74.7-26.8 74.3-26.15L74.3-26.15Q74.2-26 74.05-26L74.05-26Q73.4-26 73.4-28.23 73.4-30.45 74.08-31.05 74.75-31.65 76.43-31.65 78.1-31.65 78.7-31.08 79.3-30.5 79.3-29.15 79.3-27.8 78.85-27.28 78.4-26.75 77.25-26.75ZM73.25-1.5L73.25-1.5 73.8-13.15Q73.8-17.3 72.85-18.8L72.85-18.8Q72.55-19.3 72.15-19.55L72.15-19.55Q71.85-19.65 71.85-19.95L71.85-19.95Q71.85-20.85 74.4-21.7 76.95-22.55 78.13-22.55 79.3-22.55 79.35-21.95L79.35-21.95Q79.35-20.95 79.08-16.28 78.8-11.6 78.8-6.45 78.8-1.3 79.4-0.05L79.4-0.05Q79.55 0.2 79.55 0.45L79.55 0.45Q79.55 1.1 77.65 1.1 75.75 1.1 73.75 0.1L73.75 0.1Q73.25-0.15 73.25-1.5ZM82.6 0.35L82.6 0.35Q83.5-5.05 83.5-12.6 83.5-20.15 83.05-22.4L83.05-22.4Q83.05-23.05 84.55-23.05L84.55-23.05Q86.85-23.05 87.6-21.3L87.6-21.3Q87.65-21.15 87.85-21.15 88.05-21.15 88.15-21.25L88.15-21.25Q89.7-22.85 92.95-22.85 96.2-22.85 98.1-21.2 100-19.55 100-16.4L100-16.4Q100-14.5 99.68-11 99.35-7.5 99.35-5.8L99.35-5.8Q99.35-1.75 100.7 0.05L100.7 0.05Q100.9 0.3 100.9 0.55L100.9 0.55Q100.9 1.2 99.5 1.2L99.5 1.2Q93.3 1.2 93.3-4.3L93.3-4.3Q93.3-6.4 94.25-10.15 95.2-13.9 95.2-15.85L95.2-15.85Q95.2-19.85 91.9-19.85L91.9-19.85Q90.3-19.85 89.48-18.9 88.65-17.95 88.55-16.73 88.45-15.5 88.45-12.1L88.45-12.1Q88.45-6.9 88.8-3.05L88.8-3.05 88.9-1.95Q88.9-0.55 87.08 0.23 85.25 1 83.93 1 82.6 1 82.6 0.35ZM107.3-12.7L107.3-12.7 107.35-11.45Q107.35-11.15 107.75-11.15L107.75-11.15Q109.35-11.3 110.55-11.98 111.75-12.65 112.35-13.5L112.35-13.5Q113.55-15.35 113.65-16.7L113.65-16.7 113.7-17.3Q113.7-20 111.55-20L111.55-20Q109.95-20 108.95-18.6L108.95-18.6Q107.3-16.4 107.3-12.7ZM118.2-6.05L118.2-6.05Q118.2-4.15 117.43-2.73 116.65-1.3 115.68-0.63 114.7 0.05 113.4 0.45L113.4 0.45Q111.75 0.95 110.25 0.95L110.25 0.95Q106.05 0.95 104.05-2.2 102.05-5.35 102.05-10.23 102.05-15.1 104.53-18.9 107-22.7 111.95-22.7L111.95-22.7Q116.45-22.7 118.05-19.55L118.05-19.55Q118.7-18.35 118.7-17.28 118.7-16.2 118.6-15.58 118.5-14.95 117.9-13.7 117.3-12.45 116.3-11.45 115.3-10.45 113.15-9.55 111-8.65 108.1-8.35L108.1-8.35Q107.7-8.35 107.7-8L107.7-8Q107.7-7.55 108.03-6.68 108.35-5.8 108.75-5.2L108.75-5.2Q109.85-3.8 112-3.8L112-3.8Q114.15-3.8 115.65-5.2L115.65-5.2Q116.45-5.95 116.95-7.05L116.95-7.05Q117.15-7.45 117.48-7.45 117.8-7.45 118-6.9 118.2-6.35 118.2-6.05ZM145.85-27.7L145.85-27.7 146.05-29.25Q146.05-31.55 144.25-32.2L144.25-32.2Q142.85-32.65 142.1-32.65L142.1-32.65 142.05-32.65Q140.55-32.65 139.45-32.18 138.35-31.7 137.85-31L137.85-31Q136.8-29.55 136.65-27.95L136.65-27.95Q136.65-26.05 138.35-24.68 140.05-23.3 142.48-22.28 144.9-21.25 147.33-20.05 149.75-18.85 151.45-16.6 153.15-14.35 153.15-11.2L153.15-11.2Q153.15-5.05 149.28-2 145.4 1.05 140.48 1.05 135.55 1.05 132.33-1.18 129.1-3.4 129.1-7.15L129.1-7.15 129.1-7.2Q129.1-9.05 129.68-10.43 130.25-11.8 131.05-12.45L131.05-12.45Q132.7-13.8 134.05-13.9L134.05-13.9 134.65-13.95Q136.05-13.95 137.2-13.28 138.35-12.6 138.35-11.4L138.35-11.4Q138.35-10.8 137.7-10.4 137.05-10 136.58-9.2 136.1-8.4 136.05-7.85L136.05-7.85 135.95-7.3Q135.95-4.25 138.75-3.25L138.75-3.25Q139.75-2.9 140.35-2.9L140.35-2.9Q143.1-2.9 144.78-4.55 146.45-6.2 146.45-8.75L146.45-8.75Q146.45-11.8 143.85-13.7L143.85-13.7Q141.9-15.1 139.63-16.05 137.35-17 136.55-17.4 135.75-17.8 134.85-18.35 133.95-18.9 132.85-19.9L132.85-19.9Q130.45-22 130.45-25.58 130.45-29.15 132.4-31.6L132.4-31.6Q135.9-36.05 142.9-36.05L142.9-36.05Q146.6-36.05 149.15-34.63 151.7-33.2 151.7-30.7L151.7-30.7Q151.7-28.9 150.68-27.7 149.65-26.5 148.05-26.5L148.05-26.5Q147.3-26.5 146.58-26.8 145.85-27.1 145.85-27.7ZM163.45-22.15L163.45-22.15Q163.45-6.65 164.15-1.85L164.15-1.85Q164.15-0.65 161.85 0.13 159.55 0.9 158.05 0.9 156.55 0.9 156.55 0.45L156.55 0.45Q156.55 0.15 156.7-0.3L156.7-0.3Q157.65-2.4 157.65-17.2L157.65-17.2Q157.65-31.2 156.45-32.75L156.45-32.75 156.25-33.05Q155.95-33.3 155.95-33.68 155.95-34.05 156.5-34.3L156.5-34.3Q157.25-34.75 159.18-35.2 161.1-35.65 162.65-35.65 164.2-35.65 164.2-34.95L164.2-34.95 164.2-34.8Q163.6-29.6 163.45-22.15ZM179 0.3L179 0.3Q179.7-3.2 179.7-9.53 179.7-15.85 179.65-17 179.6-18.15 178.95-18.85 178.3-19.55 177.83-19.65 177.35-19.75 176.5-19.75 175.65-19.75 174.85-18.98 174.05-18.2 173.9-17.4L173.9-17.4 173.7-16.6Q173.55-15.1 173.55-9.95 173.55-4.8 173.78-3.48 174-2.15 174-1.7 174-1.25 173.6-0.8L173.6-0.8Q171.9 1 168.8 1L168.8 1Q167.7 1 167.7 0.35L167.7 0.35Q168.7-5.65 168.7-14.95L168.7-14.95Q168.7-18.4 168.55-19.6L168.55-19.6 168.35-21.2Q168.3-21.75 168.15-22.4L168.15-22.4Q168.15-23 169.7-23L169.7-23Q172-23 172.75-21.3L172.75-21.3Q172.8-21.1 172.95-21.1 173.1-21.1 173.65-21.5L173.65-21.5Q175.3-22.8 178.1-22.8L178.1-22.8Q179.7-22.8 181.25-22.2 182.8-21.6 183.4-20.6L183.4-20.6Q183.45-20.5 183.55-20.5 183.65-20.5 183.85-20.7L183.85-20.7Q185.95-22.8 189.3-22.8L189.3-22.8Q193.75-22.8 195.4-19.6L195.4-19.6Q196-18.35 196-16.45 196-14.55 195.7-11.05 195.4-7.55 195.4-5.7 195.4-3.85 195.78-2.35 196.15-0.85 196.53-0.2 196.9 0.45 196.9 0.55L196.9 0.55Q196.9 1.2 195.5 1.2L195.5 1.2Q192.05 1.2 190.7-0.2 189.35-1.6 189.35-3.88 189.35-6.15 190.28-10.03 191.2-13.9 191.2-15.85L191.2-15.85Q191.2-19.8 188-19.8L188-19.8Q186.65-19.8 185.85-19 185.05-18.2 184.9-17.4L184.9-17.4 184.8-16.6Q184.6-14.3 184.6-11.05 184.6-7.8 184.7-5.98 184.8-4.15 184.9-3.13 185-2.1 185-1.9L185-1.9Q185-0.5 183.25 0.25 181.5 1 179.85 1L179.85 1Q179 1 179 0.3ZM203.7-26.75L203.7-26.75 202.5-26.8Q201.15-26.8 200.75-26.15L200.75-26.15Q200.65-26 200.5-26L200.5-26Q199.85-26 199.85-28.23 199.85-30.45 200.53-31.05 201.2-31.65 202.88-31.65 204.55-31.65 205.15-31.08 205.75-30.5 205.75-29.15 205.75-27.8 205.3-27.28 204.85-26.75 203.7-26.75ZM199.7-1.5L199.7-1.5 200.25-13.15Q200.25-17.3 199.3-18.8L199.3-18.8Q199-19.3 198.6-19.55L198.6-19.55Q198.3-19.65 198.3-19.95L198.3-19.95Q198.3-20.85 200.85-21.7 203.4-22.55 204.58-22.55 205.75-22.55 205.8-21.95L205.8-21.95Q205.8-20.95 205.53-16.28 205.25-11.6 205.25-6.45 205.25-1.3 205.85-0.05L205.85-0.05Q206 0.2 206 0.45L206 0.45Q206 1.1 204.1 1.1 202.2 1.1 200.2 0.1L200.2 0.1Q199.7-0.15 199.7-1.5ZM215.8-28.6L215.8-28.6 215.5-10.25Q215.5-1.65 216.05 0.05L216.05 0.05Q216.2 0.35 216.2 0.65L216.2 0.65Q216.2 1.25 214.75 1.25 213.3 1.25 211.53 0.53 209.75-0.2 209.75-1.35L209.75-1.35Q210.75-8.35 210.75-20.05L210.75-20.05 210.55-27.7Q210.45-29.1 209.98-30.1 209.5-31.1 209.05-31.4L209.05-31.4 208.65-31.65Q208.3-31.85 208.3-32.1L208.3-32.1Q208.3-32.8 210.48-33.83 212.65-34.85 214.7-34.85L214.7-34.85Q215.5-34.85 215.6-34.3L215.6-34.3Q215.8-33 215.8-28.6ZM235.9-15L235.9-15 235.8-8.6Q235.8-1.95 237.25-0.6L237.25-0.6Q237.45-0.4 237.45-0.15L237.45-0.15Q237.45 0.6 234.23 0.6 231 0.6 230.8-1.3L230.8-1.3Q230.75-1.75 230.75-3.15L230.75-3.15 230.95-11.15Q230.95-11.5 230.55-11.5L230.55-11.5Q228.15-11.5 226.05-10.15 223.95-8.8 223.95-6.7L223.95-6.7Q223.95-5.6 224.55-4.85 225.15-4.1 226.03-4.1 226.9-4.1 227.48-4.45 228.05-4.8 228.15-4.85L228.15-4.85Q229-4.75 229-3.08 229-1.4 227.45-0.38 225.9 0.65 224.2 0.65 222.5 0.65 221.28 0.05 220.05-0.55 219.5-1.3 218.95-2.05 218.6-3L218.6-3Q218.25-4.15 218.25-5L218.25-5Q218.25-8.5 220.45-10.6 222.65-12.7 226.1-13.6L226.1-13.6Q230.65-14.5 230.85-15.25L230.85-15.25Q231-15.8 231-17.1L231-17.1Q231-19.75 228.3-19.75L228.3-19.75Q227.15-19.75 226.25-19.03 225.35-18.3 225.35-17.2L225.35-17.2 225.65-16Q225.55-15.15 223.85-15L223.85-15 223.3-14.95Q221.8-14.95 220.93-15.7 220.05-16.45 220.05-17.7L220.05-17.7Q220.05-18.5 220.58-19.48 221.1-20.45 221.9-21.05 222.7-21.65 224.38-22.13 226.05-22.6 227.6-22.6 229.15-22.6 230-22.5 230.85-22.4 232.33-22.03 233.8-21.65 234.78-20.6 235.75-19.55 235.83-18.38 235.9-17.2 235.9-15ZM254.45-17.2L254.2-13.4 254.4-11.65Q254.4-10.7 252.6-10.7L252.6-10.7Q248.95-10.7 248.95-13.45L248.95-13.45Q248.95-14.1 249.3-15.25 249.65-16.4 249.65-17.25 249.65-18.1 249.15-18.73 248.65-19.35 247.7-19.35 246.75-19.35 246.08-18.68 245.4-18 245.25-17.3L245.25-17.3 245.05-16.6Q244.75-15.05 244.75-11.43 244.75-7.8 244.85-5.73 244.95-3.65 245.05-2.88 245.15-2.1 245.15-1.95L245.15-1.95Q245.15-0.7 243.6 0.08 242.05 0.85 240.5 0.85 238.95 0.85 238.95 0.2L238.95 0.2 239.2-1.35Q239.9-5.7 239.9-12.7 239.9-19.7 239.4-22.2L239.4-22.2Q239.4-22.8 240.45-22.8L240.45-22.8Q243.15-22.8 244.05-20.95L244.05-20.95Q244.1-20.75 244.23-20.75 244.35-20.75 244.9-21.2L244.9-21.2Q246.55-22.55 248.8-22.55L248.8-22.55Q250.2-22.55 251.6-22L251.6-22Q254.45-20.85 254.45-17.2L254.45-17.2ZM261.85-26.75L261.85-26.75 260.65-26.8Q259.3-26.8 258.9-26.15L258.9-26.15Q258.8-26 258.65-26L258.65-26Q258-26 258-28.23 258-30.45 258.68-31.05 259.35-31.65 261.03-31.65 262.7-31.65 263.3-31.08 263.9-30.5 263.9-29.15 263.9-27.8 263.45-27.28 263-26.75 261.85-26.75ZM257.85-1.5L257.85-1.5 258.4-13.15Q258.4-17.3 257.45-18.8L257.45-18.8Q257.15-19.3 256.75-19.55L256.75-19.55Q256.45-19.65 256.45-19.95L256.45-19.95Q256.45-20.85 259-21.7 261.55-22.55 262.73-22.55 263.9-22.55 263.95-21.95L263.95-21.95Q263.95-20.95 263.68-16.28 263.4-11.6 263.4-6.45 263.4-1.3 264-0.05L264-0.05Q264.15 0.2 264.15 0.45L264.15 0.45Q264.15 1.1 262.25 1.1 260.35 1.1 258.35 0.1L258.35 0.1Q257.85-0.15 257.85-1.5ZM266.45-19.5L266.45-19.5 266.6-21.5Q266.65-21.95 267.3-21.95L267.3-21.95 269.05-21.95 268.85-25.95 268.85-26.15Q268.85-27.3 270.6-28.35 272.35-29.4 273.8-29.4L273.8-29.4Q274.25-29.4 274.25-29L274.25-29 274.25-28.95Q274.05-27.6 273.85-22L273.85-22Q276.05-22 276.65-22.1 277.25-22.2 277.3-22.2L277.3-22.2Q277.65-22.2 277.65-21.6 277.65-21 277.1-20.08 276.55-19.15 275.9-19.1L275.9-19.1 273.8-19.1Q273.75-17.4 273.75-13.38 273.75-9.35 273.83-6.75 273.9-4.15 274-2.83 274.1-1.5 274.23-0.7 274.35 0.1 274.43 0.45 274.5 0.8 274.5 0.9L274.5 0.9Q274.5 1.4 273.85 1.45L273.85 1.45Q271.9 1.45 269.98 0.9 268.05 0.35 268.05-1L268.05-1Q269.1-9.4 269.1-19.05L269.1-19.05Q267.75-19.05 267.05-18.95L267.05-18.95 267-18.95Q266.55-18.95 266.45-19.5ZM287.75 13.85L287.75 13.85Q287.75 14.45 287.15 14.45L287.15 14.45 287.1 14.45Q285.45 14.45 283.38 13.3 281.3 12.15 281.3 10.65 281.3 9.15 283.2 5.43 285.1 1.7 285.1 0.45L285.1 0.45Q285.1-0.9 283.8-4.4L283.8-4.4Q282.15-8.95 281.18-11.8 280.2-14.65 279.08-16.82 277.95-19 277.45-19.4L277.45-19.4 276.95-19.75Q276.4-20.05 276.4-20.4L276.4-20.4Q276.4-21.1 278.58-21.83 280.75-22.55 282.4-22.55L282.4-22.55Q283.15-22.55 283.65-21.35L283.65-21.35Q284.55-19 285.6-14.85L285.6-14.85Q288.15-6.35 288.8-6.35L288.8-6.35Q289.25-6.35 290.63-9.85 292-13.35 292-15.5L292-15.5Q292-19.25 289.8-19.9L289.8-19.9Q289.3-20 289.3-20.4L289.3-20.4Q289.3-21.3 291.65-22.13 294-22.95 295.9-22.95L295.9-22.95Q297.55-22.95 297.55-20.8L297.55-20.8Q297.55-19.15 296.85-16.95 296.15-14.75 295.55-13.48 294.95-12.2 292.58-7.58 290.2-2.95 288.65 0.55L288.65 0.55Q286.95 4.75 286.95 9.1L286.95 9.1Q286.95 11.4 287.35 12.55 287.75 13.7 287.75 13.85ZM301-14L301-14Q301-14 318.1-14.15L318.1-14.15Q318.75-14.15 318.75-13.6L318.75-13.6Q318.75-11.1 316.95-11.1L316.95-11.1 299.7-11.1Q299.05-11.1 299.05-12.1L299.05-12.1Q299.05-14 301-14ZM332.35-17.25L332.35-17.25 331.2-16.95Q330.3-16.95 330.3-18.63 330.3-20.3 331.52-21.33 332.75-22.35 334.65-22.35L334.65-22.35Q335.7-22.35 336.9-21.73 338.1-21.1 338.9-20.18 339.7-19.25 340.32-17.28 340.95-15.3 340.95-12.65L340.95-12.65Q340.95-6.55 337.68-2.75 334.4 1.05 328.2 1.05L328.2 1.05Q326.4 1.05 324.65 0.7L324.65 0.7 324.15 0.6Q323.5 0.4 323.4-0.1L323.4-0.1Q323.25-1.15 323.25-5.05L323.25-5.05 323.55-21.25Q323.55-25 323.35-27L323.35-27 323.25-27.7Q323.15-29.1 322.68-30.1 322.2-31.1 321.75-31.4L321.75-31.4 321.35-31.65Q321-31.85 321-32.1L321-32.1Q321-32.85 323.5-33.88 326-34.9 327.15-34.9 328.3-34.9 328.35-34.3L328.35-34.3Q328.7-31.25 328.7-25.6L328.7-25.6 328.45-13.6Q328.45-5.75 328.9-2.75L328.9-2.75Q328.95-2.05 330.48-2.05 332-2.05 333.1-2.9 334.2-3.75 334.75-5.15L334.75-5.15Q335.75-7.7 335.75-10.8L335.75-10.8Q335.75-12.25 335.35-13.95L335.35-13.95Q334.65-17.25 332.35-17.25ZM359.9-15L359.9-15 359.8-8.6Q359.8-1.95 361.25-0.6L361.25-0.6Q361.45-0.4 361.45-0.15L361.45-0.15Q361.45 0.6 358.22 0.6 355 0.6 354.8-1.3L354.8-1.3Q354.75-1.75 354.75-3.15L354.75-3.15 354.95-11.15Q354.95-11.5 354.55-11.5L354.55-11.5Q352.15-11.5 350.05-10.15 347.95-8.8 347.95-6.7L347.95-6.7Q347.95-5.6 348.55-4.85 349.15-4.1 350.02-4.1 350.9-4.1 351.47-4.45 352.05-4.8 352.15-4.85L352.15-4.85Q353-4.75 353-3.08 353-1.4 351.45-0.38 349.9 0.65 348.2 0.65 346.5 0.65 345.27 0.05 344.05-0.55 343.5-1.3 342.95-2.05 342.6-3L342.6-3Q342.25-4.15 342.25-5L342.25-5Q342.25-8.5 344.45-10.6 346.65-12.7 350.1-13.6L350.1-13.6Q354.65-14.5 354.85-15.25L354.85-15.25Q355-15.8 355-17.1L355-17.1Q355-19.75 352.3-19.75L352.3-19.75Q351.15-19.75 350.25-19.03 349.35-18.3 349.35-17.2L349.35-17.2 349.65-16Q349.55-15.15 347.85-15L347.85-15 347.3-14.95Q345.8-14.95 344.93-15.7 344.05-16.45 344.05-17.7L344.05-17.7Q344.05-18.5 344.57-19.48 345.1-20.45 345.9-21.05 346.7-21.65 348.38-22.13 350.05-22.6 351.6-22.6 353.15-22.6 354-22.5 354.85-22.4 356.32-22.03 357.8-21.65 358.77-20.6 359.75-19.55 359.82-18.38 359.9-17.2 359.9-15ZM378.15-6.85L378.15-6.85Q378.15-4.7 377.32-3.1 376.5-1.5 375.45-0.75 374.4 0 372.95 0.45L372.95 0.45Q371.05 1.05 369.5 1.05L369.5 1.05Q366.25 1.05 364.1-0.23 361.95-1.5 361.95-4.3L361.95-4.3Q361.95-5.95 362.85-7L362.85-7Q364.25-8.55 366.2-8.55L366.2-8.55Q366.8-8.55 366.8-8L366.8-8Q366.8-7.95 366.57-7.23 366.35-6.5 366.35-5.4 366.35-4.3 367.22-3.45 368.1-2.6 369.35-2.6 370.6-2.6 371.35-3.03 372.1-3.45 372.4-4.1L372.4-4.1Q372.85-5 372.85-5.8L372.85-5.8Q372.85-7.25 371.4-8.3 369.95-9.35 368.2-9.95 366.45-10.55 365-11.95 363.55-13.35 363.55-15.45L363.55-15.45Q363.55-19.05 365.82-20.85 368.1-22.65 372-22.65L372-22.65Q373.7-22.65 375.57-22.18 377.45-21.7 377.45-20.58 377.45-19.45 377.07-18.5 376.7-17.55 376.15-17.55L376.15-17.55Q375.85-17.55 375.75-17.78 375.65-18 375.4-18.3 375.15-18.6 374.2-19.07 373.25-19.55 372.57-19.55 371.9-19.55 371.68-19.53 371.45-19.5 370.9-19.38 370.35-19.25 369.9-19L369.9-19Q368.75-18.35 368.75-17.1L368.75-17.1Q368.75-16.3 369.1-15.93 369.45-15.55 369.65-15.35 369.85-15.15 370.35-14.88 370.85-14.6 371.05-14.5 371.25-14.4 371.95-14.08 372.65-13.75 372.85-13.65L372.85-13.65Q378.15-11.15 378.15-6.85ZM384.9-12.7L384.9-12.7 384.95-11.45Q384.95-11.15 385.35-11.15L385.35-11.15Q386.95-11.3 388.15-11.98 389.35-12.65 389.95-13.5L389.95-13.5Q391.15-15.35 391.25-16.7L391.25-16.7 391.3-17.3Q391.3-20 389.15-20L389.15-20Q387.55-20 386.55-18.6L386.55-18.6Q384.9-16.4 384.9-12.7ZM395.8-6.05L395.8-6.05Q395.8-4.15 395.02-2.73 394.25-1.3 393.27-0.63 392.3 0.05 391 0.45L391 0.45Q389.35 0.95 387.85 0.95L387.85 0.95Q383.65 0.95 381.65-2.2 379.65-5.35 379.65-10.23 379.65-15.1 382.13-18.9 384.6-22.7 389.55-22.7L389.55-22.7Q394.05-22.7 395.65-19.55L395.65-19.55Q396.3-18.35 396.3-17.28 396.3-16.2 396.2-15.58 396.1-14.95 395.5-13.7 394.9-12.45 393.9-11.45 392.9-10.45 390.75-9.55 388.6-8.65 385.7-8.35L385.7-8.35Q385.3-8.35 385.3-8L385.3-8Q385.3-7.55 385.63-6.68 385.95-5.8 386.35-5.2L386.35-5.2Q387.45-3.8 389.6-3.8L389.6-3.8Q391.75-3.8 393.25-5.2L393.25-5.2Q394.05-5.95 394.55-7.05L394.55-7.05Q394.75-7.45 395.07-7.45 395.4-7.45 395.6-6.9 395.8-6.35 395.8-6.05ZM408.55-22.45L408.55-22.45Q409.45-22.45 410.17-22.23 410.9-22 410.95-22L410.95-22 411.25-22.25 411.05-27.7Q410.95-29.1 410.45-30.1 409.95-31.1 409.55-31.4L409.55-31.4 409.1-31.65Q408.8-31.85 408.8-32.1L408.8-32.1Q408.8-32.85 411.12-33.85 413.45-34.85 414.75-34.85 416.05-34.85 416.15-34.3L416.15-34.3Q416.4-32.6 416.4-27.83 416.4-23.05 416.17-18.45 415.95-13.85 415.95-8.03 415.95-2.2 416.7-0.7L416.7-0.7Q416.9-0.35 416.9-0.05L416.9-0.05Q416.9 0.7 414.75 0.7L414.75 0.7Q410.65 0.7 410.65-1.25L410.65-1.25Q410.55-2.05 410.55-3.73 410.55-5.4 410.87-9.98 411.2-14.55 411.2-17.03 411.2-19.5 408.72-19.5 406.25-19.5 404.95-16.6 403.65-13.7 403.65-10.8L403.65-10.8Q403.65-4.65 406.75-4.65L406.75-4.65Q407.2-4.65 407.62-4.83 408.05-5 408.15-5L408.15-5Q408.55-5 408.77-4.5 409-4 409-3.5L409-3.5Q409-1.8 407.65-0.63 406.3 0.55 404.35 0.55L404.35 0.55Q401.35 0.55 399.82-2.08 398.3-4.7 398.3-8.6L398.3-8.6Q398.3-13.55 400.65-17.8L400.65-17.8Q401.85-19.9 403.9-21.18 405.95-22.45 408.55-22.45ZM445.6-9.95L445.5-14.7Q445.5-15.85 444.1-15.95L444.1-15.95 440.55-15.95Q440.15-15.95 440.15-16.2L440.15-16.2Q440.45-17.65 441.2-18.53 441.95-19.4 442.45-19.5L442.45-19.5Q443.85-19.7 447.05-19.7 450.25-19.7 451.05-19.68 451.85-19.65 452.05-19.5L452.05-19.5Q452.25-19.25 452.25-18.93 452.25-18.6 452.07-14.78 451.9-10.95 451.9-7.93 451.9-4.9 452.1-4.13 452.3-3.35 452.3-3.15L452.3-3.15Q452.3-2.35 450.9-1.43 449.5-0.5 446.67 0.2 443.85 0.9 440.45 0.9L440.45 0.9Q435.9 0.9 432.55-2.25L432.55-2.25Q429.95-4.75 428.97-7.7 428-10.65 428-16L428-16Q428-35.85 442.55-35.85L442.55-35.85Q445-35.85 446.95-35.33 448.9-34.8 450.38-33.27 451.85-31.75 451.85-29.35L451.85-29.35Q451.85-28.1 451.35-26.8L451.35-26.8Q450.45-24.15 447.35-24.15L447.35-24.15Q445.65-24.15 444.77-25.03 443.9-25.9 443.9-27.45L443.9-27.45Q443.9-28.05 444.55-28.2L444.55-28.2Q445.5-28.75 445.5-30.08 445.5-31.4 444.5-32.13 443.5-32.85 442.4-32.85L442.4-32.85Q440-32.85 438.35-31.13 436.7-29.4 435.95-26.6L435.95-26.6Q434.7-21.6 434.7-16.4L434.7-16.4Q434.7-7.9 438.85-5.1L438.85-5.1Q440.4-4 442.1-4L442.1-4Q445.25-4 445.45-5.15L445.45-5.15Q445.6-6.7 445.6-9.95L445.6-9.95ZM459.75-12.7L459.75-12.7 459.8-11.45Q459.8-11.15 460.2-11.15L460.2-11.15Q461.8-11.3 463-11.98 464.2-12.65 464.8-13.5L464.8-13.5Q466-15.35 466.1-16.7L466.1-16.7 466.15-17.3Q466.15-20 464-20L464-20Q462.4-20 461.4-18.6L461.4-18.6Q459.75-16.4 459.75-12.7ZM470.65-6.05L470.65-6.05Q470.65-4.15 469.88-2.73 469.1-1.3 468.13-0.63 467.15 0.05 465.85 0.45L465.85 0.45Q464.2 0.95 462.7 0.95L462.7 0.95Q458.5 0.95 456.5-2.2 454.5-5.35 454.5-10.23 454.5-15.1 456.98-18.9 459.45-22.7 464.4-22.7L464.4-22.7Q468.9-22.7 470.5-19.55L470.5-19.55Q471.15-18.35 471.15-17.28 471.15-16.2 471.05-15.58 470.95-14.95 470.35-13.7 469.75-12.45 468.75-11.45 467.75-10.45 465.6-9.55 463.45-8.65 460.55-8.35L460.55-8.35Q460.15-8.35 460.15-8L460.15-8Q460.15-7.55 460.48-6.68 460.8-5.8 461.2-5.2L461.2-5.2Q462.3-3.8 464.45-3.8L464.45-3.8Q466.6-3.8 468.1-5.2L468.1-5.2Q468.9-5.95 469.4-7.05L469.4-7.05Q469.6-7.45 469.93-7.45 470.25-7.45 470.45-6.9 470.65-6.35 470.65-6.05ZM473.4 0.35L473.4 0.35Q474.3-5.05 474.3-12.6 474.3-20.15 473.85-22.4L473.85-22.4Q473.85-23.05 475.35-23.05L475.35-23.05Q477.65-23.05 478.4-21.3L478.4-21.3Q478.45-21.15 478.65-21.15 478.85-21.15 478.95-21.25L478.95-21.25Q480.5-22.85 483.75-22.85 487-22.85 488.9-21.2 490.8-19.55 490.8-16.4L490.8-16.4Q490.8-14.5 490.47-11 490.15-7.5 490.15-5.8L490.15-5.8Q490.15-1.75 491.5 0.05L491.5 0.05Q491.7 0.3 491.7 0.55L491.7 0.55Q491.7 1.2 490.3 1.2L490.3 1.2Q484.1 1.2 484.1-4.3L484.1-4.3Q484.1-6.4 485.05-10.15 486-13.9 486-15.85L486-15.85Q486-19.85 482.7-19.85L482.7-19.85Q481.1-19.85 480.27-18.9 479.45-17.95 479.35-16.73 479.25-15.5 479.25-12.1L479.25-12.1Q479.25-6.9 479.6-3.05L479.6-3.05 479.7-1.95Q479.7-0.55 477.88 0.23 476.05 1 474.72 1 473.4 1 473.4 0.35ZM498.25-18.85L498.25-18.85Q496.95-18.8 496.37-18.78 495.8-18.75 495.8-19.05 495.8-19.35 496.1-19.65L496.1-19.65Q499.3-22.6 506.9-22.6L506.9-22.6Q509.5-22.6 511-22.15L511-22.15 511.5-22Q512.1-21.75 512.1-21.45L512.1-21.45Q512.1-21.2 511.75-21.05L511.75-21.05Q510.4-20.65 509.15-19.78 507.9-18.9 507.9-18.55L507.9-18.55 508.2-18.2Q509.8-17.3 510.67-15.35 511.55-13.4 511.65-11.9L511.65-11.9 511.75-10.35Q511.75-5.4 509-2.2 506.25 1 501.5 1L501.5 1Q499.1 1 497.35 0.15 495.6-0.7 494.77-1.78 493.95-2.85 493.45-4.2L493.45-4.2Q492.85-6.05 492.85-8.03 492.85-10 493.52-12 494.2-14 495.07-14.95 495.95-15.9 497.05-16.5L497.05-16.5Q498.45-17.25 499.3-17.25 500.15-17.25 500.15-16.9L500.15-16.9 499.85-16.4Q498.75-15.1 498.27-13 497.8-10.9 497.8-9.28 497.8-7.65 498.2-6.05 498.6-4.45 499.1-3.68 499.6-2.9 500.25-2.5L500.25-2.5Q501.2-1.9 502.25-1.9 503.3-1.9 504.3-2.73 505.3-3.55 505.75-4.9L505.75-4.9Q506.65-7.4 506.65-10.05L506.65-10.05Q506.65-14.25 504.52-16.55 502.4-18.85 498.25-18.85ZM518.25-35.6L518.25-35.6 525.45-35.2Q530.25-35.2 532.35-36.35L532.35-36.35Q532.65-36.55 532.87-36.55 533.1-36.55 533.1-35.85 533.1-35.15 532.25-33.55L532.25-33.55Q531-31.1 528.65-31.1L528.65-31.1 525.9-31.15Q525.5-31.15 525.4-30.7L525.4-30.7Q525.05-23.35 525.05-14.83 525.05-6.3 525.75-2L525.75-2 525.75-1.75Q525.75-0.5 523.37 0.25 521 1 518.9 1L518.9 1Q517.9 1 517.9 0.45L517.9 0.45Q517.9 0.3 518.05-0.25L518.05-0.25Q518.6-1.35 519.02-10.9 519.45-20.45 519.45-25.3L519.45-25.3 519.35-30.75Q519.35-31.05 519.05-31.1L519.05-31.1Q518-31.3 516.65-31.3L516.65-31.3Q513.95-31.3 512.65-30.2L512.65-30.2Q512.3-29.95 511.97-29.95 511.65-29.95 511.65-30.35L511.65-30.35Q511.65-30.95 512.27-32 512.9-33.05 513.6-33.8L513.6-33.8Q515.3-35.6 518.25-35.6ZM539.65 13.85L539.65 13.85Q539.65 14.45 539.05 14.45L539.05 14.45 539 14.45Q537.35 14.45 535.27 13.3 533.2 12.15 533.2 10.65 533.2 9.15 535.1 5.43 537 1.7 537 0.45L537 0.45Q537-0.9 535.7-4.4L535.7-4.4Q534.05-8.95 533.07-11.8 532.1-14.65 530.97-16.82 529.85-19 529.35-19.4L529.35-19.4 528.85-19.75Q528.3-20.05 528.3-20.4L528.3-20.4Q528.3-21.1 530.47-21.83 532.65-22.55 534.3-22.55L534.3-22.55Q535.05-22.55 535.55-21.35L535.55-21.35Q536.45-19 537.5-14.85L537.5-14.85Q540.05-6.35 540.7-6.35L540.7-6.35Q541.15-6.35 542.52-9.85 543.9-13.35 543.9-15.5L543.9-15.5Q543.9-19.25 541.7-19.9L541.7-19.9Q541.2-20 541.2-20.4L541.2-20.4Q541.2-21.3 543.55-22.13 545.9-22.95 547.8-22.95L547.8-22.95Q549.45-22.95 549.45-20.8L549.45-20.8Q549.45-19.15 548.75-16.95 548.05-14.75 547.45-13.48 546.85-12.2 544.47-7.58 542.1-2.95 540.55 0.55L540.55 0.55Q538.85 4.75 538.85 9.1L538.85 9.1Q538.85 11.4 539.25 12.55 539.65 13.7 539.65 13.85ZM550.75-7.65L550.75-7.65Q550.85-12.7 550.85-15.95 550.85-19.2 550.4-22.15L550.4-22.15Q550.4-22.65 551.4-22.65 552.4-22.65 553.13-22.4 553.85-22.15 554.15-21.85L554.15-21.85Q554.95-21.05 555.08-21.05 555.2-21.05 555.85-21.5L555.85-21.5Q557.8-22.75 560.17-22.75 562.55-22.75 564.33-21.55 566.1-20.35 566.85-18.4L566.85-18.4Q568.2-15.05 568.2-11.3L568.2-11.3Q568.2-7.6 566.85-3.9L566.85-3.9Q566.1-1.9 564.65-0.63 563.2 0.65 561.25 0.65L561.25 0.65Q557.4 0.65 557.4-3.8L557.4-3.8Q557.4-5 557.9-5L557.9-5Q558-5 558.48-4.78 558.95-4.55 559.4-4.55L559.4-4.55Q562.95-4.55 562.95-12.08 562.95-19.6 559.15-19.6L559.15-19.6Q558.1-19.6 557.38-19.13 556.65-18.65 556.45-18.2L556.45-18.2 556.25-17.7Q555.55-13.2 555.55-0.35L555.55-0.35Q555.55 5.45 555.77 7.98 556 10.5 556 11 556 11.5 555.7 11.9L555.7 11.9Q554.7 13.2 553 14.23 551.3 15.25 550 15.25L550 15.25Q549.5 15.25 549.5 14.6L549.5 14.6Q550.3 9.55 550.75-7.65ZM575.4-12.7L575.4-12.7 575.45-11.45Q575.45-11.15 575.85-11.15L575.85-11.15Q577.45-11.3 578.65-11.98 579.85-12.65 580.45-13.5L580.45-13.5Q581.65-15.35 581.75-16.7L581.75-16.7 581.8-17.3Q581.8-20 579.65-20L579.65-20Q578.05-20 577.05-18.6L577.05-18.6Q575.4-16.4 575.4-12.7ZM586.3-6.05L586.3-6.05Q586.3-4.15 585.52-2.73 584.75-1.3 583.77-0.63 582.8 0.05 581.5 0.45L581.5 0.45Q579.85 0.95 578.35 0.95L578.35 0.95Q574.15 0.95 572.15-2.2 570.15-5.35 570.15-10.23 570.15-15.1 572.63-18.9 575.1-22.7 580.05-22.7L580.05-22.7Q584.55-22.7 586.15-19.55L586.15-19.55Q586.8-18.35 586.8-17.28 586.8-16.2 586.7-15.58 586.6-14.95 586-13.7 585.4-12.45 584.4-11.45 583.4-10.45 581.25-9.55 579.1-8.65 576.2-8.35L576.2-8.35Q575.8-8.35 575.8-8L575.8-8Q575.8-7.55 576.13-6.68 576.45-5.8 576.85-5.2L576.85-5.2Q577.95-3.8 580.1-3.8L580.1-3.8Q582.25-3.8 583.75-5.2L583.75-5.2Q584.55-5.95 585.05-7.05L585.05-7.05Q585.25-7.45 585.57-7.45 585.9-7.45 586.1-6.9 586.3-6.35 586.3-6.05ZM604.05-17.2L603.8-13.4 604-11.65Q604-10.7 602.2-10.7L602.2-10.7Q598.55-10.7 598.55-13.45L598.55-13.45Q598.55-14.1 598.9-15.25 599.25-16.4 599.25-17.25 599.25-18.1 598.75-18.73 598.25-19.35 597.3-19.35 596.35-19.35 595.67-18.68 595-18 594.85-17.3L594.85-17.3 594.65-16.6Q594.35-15.05 594.35-11.43 594.35-7.8 594.45-5.73 594.55-3.65 594.65-2.88 594.75-2.1 594.75-1.95L594.75-1.95Q594.75-0.7 593.2 0.08 591.65 0.85 590.1 0.85 588.55 0.85 588.55 0.2L588.55 0.2 588.8-1.35Q589.5-5.7 589.5-12.7 589.5-19.7 589-22.2L589-22.2Q589-22.8 590.05-22.8L590.05-22.8Q592.75-22.8 593.65-20.95L593.65-20.95Q593.7-20.75 593.82-20.75 593.95-20.75 594.5-21.2L594.5-21.2Q596.15-22.55 598.4-22.55L598.4-22.55Q599.8-22.55 601.2-22L601.2-22Q604.05-20.85 604.05-17.2L604.05-17.2Z" opacity="1" transform="matrix(1,0,0,1,0,0)" fill="#fffff5" class="slogan-text-1" data-fill-palette-color="quaternary" id="text-1"></path></svg></g></svg></g></svg></g></svg></g><g transform="matrix(1,0,0,1,41.371921857778915,0)"><svg viewBox="0 0 130.41459751159928 43.347798423095306" height="43.347798423095306" width="130.41459751159928"><g><svg xmlns="http://www.w3.org/2000/svg" xmlns:xlink="http://www.w3.org/1999/xlink" version="1.1" x="0" y="0" viewBox="2.200314274283426 31.824 94.79983106595472 31.51" enable-background="new 0 0 100 100" xml:space="preserve" height="43.347798423095306" width="130.41459751159928" class="icon-icon-0" data-fill-palette-color="quaternary" id="icon-0"><g fill="#fffff5" data-fill-palette-color="quaternary"><g fill="#fffff5" data-fill-palette-color="quaternary"><g fill="#fffff5" data-fill-palette-color="quaternary"><path d="M18.307 50.777A0.77 0.77 0 0 1 17.751 50.547 0.774 0.774 0 0 1 17.751 49.427C18.045 49.125 18.569 49.125 18.871 49.419A0.804 0.804 0 0 1 18.871 50.547 0.77 0.77 0 0 1 18.307 50.777" fill="#fffff5" data-fill-palette-color="quaternary"></path></g><g fill="#fffff5" data-fill-palette-color="quaternary"><path d="M5.59 61.842A0.792 0.792 0 1 1 7.107 61.381 0.79 0.79 0 0 1 6.583 62.374 0.8 0.8 0 0 1 5.59 61.842M8.752 60.603A0.79 0.79 0 0 1 8.982 59.507 0.8 0.8 0 0 1 10.086 59.737 0.79 0.79 0 0 1 9.848 60.833 0.794 0.794 0 0 1 8.752 60.603M11.484 58.585A0.793 0.793 0 0 1 11.5 57.457V57.465A0.79 0.79 0 0 1 12.62 57.473 0.8 0.8 0 0 1 12.612 58.601 0.8 0.8 0 0 1 12.056 58.824 0.8 0.8 0 0 1 11.484 58.585M13.827 56.115A0.786 0.786 0 0 1 13.708 55.003 0.785 0.785 0 0 1 14.82 54.884C15.162 55.154 15.217 55.654 14.939 55.996A0.76 0.76 0 0 1 14.319 56.29 0.77 0.77 0 0 1 13.827 56.115M15.908 53.43A0.793 0.793 0 0 1 15.718 52.318 0.797 0.797 0 0 1 16.83 52.135 0.797 0.797 0 0 1 17.013 53.239 0.8 0.8 0 0 1 16.361 53.573 0.8 0.8 0 0 1 15.908 53.43" fill="#fffff5" data-fill-palette-color="quaternary"></path></g><g fill="#fffff5" data-fill-palette-color="quaternary"><path d="M2.993 62.89A0.8 0.8 0 0 1 2.429 62.66 0.8 0.8 0 0 1 2.429 61.54 0.823 0.823 0 0 1 3.557 61.54C3.7 61.683 3.787 61.889 3.787 62.104A0.8 0.8 0 0 1 3.557 62.66 0.8 0.8 0 0 1 2.993 62.89" fill="#fffff5" data-fill-palette-color="quaternary"></path></g></g><g fill="#fffff5" data-fill-palette-color="quaternary"><g fill="#fffff5" data-fill-palette-color="quaternary"><path d="M80.891 50.324A0.8 0.8 0 0 1 80.327 48.966 0.823 0.823 0 0 1 81.455 48.966C81.598 49.109 81.685 49.315 81.685 49.53A0.77 0.77 0 0 1 81.447 50.086 0.77 0.77 0 0 1 80.891 50.324" fill="#fffff5" data-fill-palette-color="quaternary"></path></g><g fill="#fffff5" data-fill-palette-color="quaternary"><path d="M82.377 47.377A0.79 0.79 0 0 1 82.186 46.273 0.8 0.8 0 0 1 83.298 46.083 0.8 0.8 0 0 1 83.481 47.195 0.8 0.8 0 0 1 82.838 47.529 0.77 0.77 0 0 1 82.377 47.377M84.379 44.629A0.785 0.785 0 0 1 84.26 43.517 0.804 0.804 0 0 1 85.38 43.39 0.803 0.803 0 0 1 85.499 44.51 0.78 0.78 0 0 1 84.88 44.804 0.8 0.8 0 0 1 84.379 44.629M86.579 42.04A0.8 0.8 0 0 1 86.595 40.912 0.79 0.79 0 0 1 87.715 40.928 0.79 0.79 0 0 1 87.707 42.048H87.699A0.78 0.78 0 0 1 87.151 42.278 0.8 0.8 0 0 1 86.579 42.04M89.12 39.776A0.79 0.79 0 0 1 89.35 38.68 0.793 0.793 0 0 1 90.216 40.006 0.797 0.797 0 0 1 89.12 39.776M92.091 38.131A0.792 0.792 0 1 1 93.608 37.671 0.8 0.8 0 0 1 93.084 38.664C93.004 38.68 92.925 38.696 92.854 38.696A0.8 0.8 0 0 1 92.091 38.131" fill="#fffff5" data-fill-palette-color="quaternary"></path></g><g fill="#fffff5" data-fill-palette-color="quaternary"><path d="M96.206 38.203A0.77 0.77 0 0 1 95.65 37.973 0.775 0.775 0 0 1 95.65 36.853 0.82 0.82 0 0 1 96.77 36.845C96.921 36.996 97 37.202 97 37.409A0.77 0.77 0 0 1 96.77 37.973 0.8 0.8 0 0 1 96.206 38.203" fill="#fffff5" data-fill-palette-color="quaternary"></path></g></g><g fill="#fffff5" data-fill-palette-color="quaternary"><rect x="2.306" y="48.419" width="93.903" height="0.794" fill="#fffff5" data-fill-palette-color="quaternary"></rect></g><g fill="#fffff5" data-fill-palette-color="quaternary"><path d="M26.254 39.317C22.463 41.618 19.785 45.419 17.491 48.816H20.388C22.549 45.735 24.682 43.144 27.254 41.496A7.2 7.2 0 0 1 26.254 39.317" fill="#fffff5" data-fill-palette-color="quaternary"></path><path d="M80.005 48.817C76.461 54.619 71.67 60.909 65.467 60.909L64.786 60.933C58.373 60.585 54.777 55.326 50.978 49.768 47.997 45.408 44.937 40.953 40.394 38.702A7.2 7.2 0 0 1 39.578 40.969C43.451 42.993 46.178 46.969 49.011 51.113 53.119 57.121 57.366 63.334 65.467 63.334L66.658 63.291V63.23C73.732 62.506 78.843 55.425 82.55 49.214A1.2 1.2 0 0 0 82.696 48.816z" fill="#fffff5" data-fill-palette-color="quaternary"></path></g><path d="M33.254 31.824A5.595 5.595 0 0 0 27.666 37.412 5.595 5.595 0 0 0 33.254 43 5.595 5.595 0 0 0 38.842 37.412 5.595 5.595 0 0 0 33.254 31.824" fill="#fffff5" data-fill-palette-color="quaternary"></path></g></svg></g></svg></g><g></g></svg></g></svg></g></svg></g></svg></g><defs></defs></svg><rect width="342.85155851775386" height="342.85155851775386" fill="none" stroke="none" visibility="hidden"></rect></g></svg></g></svg>